<?xml version="1.0" standalone="no"?>
<!DOCTYPE svg PUBLIC "-//W3C//DTD SVG 20010904//EN"
 "http://www.w3.org/TR/2001/REC-SVG-20010904/DTD/svg10.dtd">
<svg version="1.0" xmlns="http://www.w3.org/2000/svg"
 width="600.000000pt" height="244.000000pt" viewBox="0 0 600.000000 244.000000"
 preserveAspectRatio="xMidYMid meet">

<g transform="translate(0.000000,244.000000) scale(0.100000,-0.100000)"
fill="#000000" stroke="none">
<path d="M1402 2310 c-6 -11 -12 -29 -12 -39 0 -29 -18 -36 -41 -15 -19 17
-21 17 -47 -10 l-27 -28 41 7 c40 6 41 5 47 -24 7 -33 36 -57 79 -65 14 -2 38
-12 53 -22 26 -17 28 -17 41 1 16 21 19 55 5 55 -5 0 -7 8 -4 19 2 10 -3 25
-11 34 -25 25 -19 45 17 53 l32 7 -24 11 c-19 8 -25 8 -29 -2 -2 -7 -17 -19
-34 -28 l-30 -16 21 -22 c27 -28 27 -39 1 -31 -44 14 -90 75 -57 75 16 0 58
46 50 54 -14 14 -59 5 -71 -14z m36 -121 c-2 -6 -8 -10 -13 -10 -5 0 -11 4
-13 10 -2 6 4 11 13 11 9 0 15 -5 13 -11z"/>
<path d="M1655 2289 c-4 -6 -5 -12 -2 -15 2 -3 7 2 10 11 7 17 1 20 -8 4z"/>
<path d="M1606 2281 c-5 -7 -3 -18 3 -24 14 -14 20 -6 11 17 -5 15 -9 16 -14
7z"/>
<path d="M1737 2263 c-4 -3 -7 -11 -7 -17 0 -6 5 -5 12 2 6 6 9 14 7 17 -3 3
-9 2 -12 -2z"/>
<path d="M1751 2221 c-19 -10 -41 -16 -50 -14 -10 2 -21 -7 -28 -23 -11 -24
-10 -26 7 -21 11 3 20 1 20 -4 0 -5 -5 -9 -11 -9 -8 0 -8 -4 0 -14 19 -23 46
-8 48 26 2 29 23 52 63 70 13 6 13 7 0 7 -8 0 -30 -8 -49 -18z"/>
<path d="M1562 2201 c19 -31 58 -45 76 -28 7 8 12 23 10 33 -3 16 -4 16 -19 2
-13 -13 -19 -14 -40 -2 -34 19 -41 17 -27 -5z"/>
<path d="M1300 2185 c0 -17 2 -18 24 -9 23 9 20 24 -4 24 -11 0 -20 -7 -20
-15z"/>
<path d="M1055 2168 c-11 -13 -13 -17 -5 -10 20 18 30 15 30 -9 0 -11 4 -18
10 -14 9 6 43 -38 46 -62 1 -7 -6 -13 -17 -13 -10 0 -24 -9 -31 -20 -7 -11
-18 -20 -25 -20 -16 0 -17 12 -1 28 10 10 10 17 0 32 -6 10 -9 25 -7 32 4 9
-2 14 -16 14 -19 0 -20 -4 -14 -53 5 -44 4 -53 -9 -53 -9 0 -13 6 -10 14 8 20
-14 30 -31 16 -19 -16 -19 -31 -1 -24 8 3 19 -3 26 -15 6 -12 19 -21 30 -21
10 0 21 -4 24 -9 8 -12 -20 -22 -41 -14 -16 6 -16 5 -4 -10 16 -20 1 -23 -31
-6 -17 9 -19 8 -16 -8 2 -10 -8 -27 -22 -40 l-25 -22 37 2 c21 1 38 5 38 10 0
4 9 7 20 7 13 0 20 7 20 20 0 18 3 19 20 10 11 -6 20 -19 20 -28 0 -10 6 -24
13 -31 9 -10 9 -15 0 -18 -14 -5 3 -63 18 -63 5 0 9 -5 9 -11 0 -20 45 -77 90
-113 25 -20 52 -42 60 -50 8 -7 29 -21 46 -29 36 -18 44 -34 44 -82 0 -30 -2
-33 -41 -38 -51 -7 -107 17 -115 49 -4 15 -11 21 -21 17 -9 -4 -16 2 -20 16
-3 11 -9 18 -14 15 -10 -6 -69 45 -69 58 0 5 6 8 14 8 20 0 48 29 40 42 -4 6
-10 6 -17 -1 -6 -6 -22 -11 -35 -11 -22 0 -23 3 -19 40 5 48 -3 51 -21 10 -18
-40 -30 -38 -38 7 -6 33 -8 35 -20 18 -10 -13 -17 -15 -26 -8 -7 6 -32 13 -56
17 -40 6 -42 5 -33 -13 6 -11 12 -53 13 -93 l3 -74 28 4 c32 5 33 15 7 65 -24
44 -25 57 -5 57 8 0 15 -4 15 -10 0 -5 13 -7 32 -3 28 5 31 4 26 -15 -5 -17
-2 -20 17 -16 13 2 29 -4 40 -16 16 -18 16 -20 1 -26 -9 -3 -23 -1 -31 6 -11
9 -15 10 -15 1 0 -7 14 -24 30 -38 17 -13 30 -33 30 -43 0 -10 7 -23 15 -30
12 -10 15 -10 15 4 0 9 -4 16 -8 16 -5 0 -9 14 -10 30 -1 35 12 39 30 10 7
-11 18 -20 25 -20 7 0 13 -11 13 -24 0 -14 4 -28 10 -31 6 -4 7 1 3 11 -5 13
-3 15 8 9 40 -25 69 -50 69 -62 0 -8 5 -11 10 -8 20 12 80 -19 95 -49 14 -26
13 -31 -2 -49 -13 -15 -15 -21 -5 -24 16 -6 15 -65 -2 -88 -13 -19 -16 -19
-49 -3 -19 9 -38 26 -42 37 -6 20 -8 20 -36 6 -16 -9 -29 -22 -29 -29 0 -21
-25 -37 -45 -29 -16 6 -15 8 6 16 20 9 21 11 6 14 -10 3 -24 0 -32 -7 -11 -9
-14 -6 -17 12 -2 13 -7 21 -13 18 -5 -3 -9 -7 -8 -10 0 -3 -5 -11 -13 -18 -12
-11 -14 -9 -14 13 0 16 -6 25 -16 25 -11 0 -14 -6 -9 -21 6 -19 4 -20 -24 -14
-22 5 -31 3 -31 -6 0 -7 -8 -5 -22 7 -12 10 -18 13 -14 7 5 -9 0 -13 -13 -13
-12 0 -21 4 -21 10 0 5 -7 7 -16 3 -9 -3 -20 0 -26 8 -7 11 -11 11 -15 2 -2
-7 -12 -13 -21 -13 -14 0 -15 -2 -2 -9 8 -6 18 -7 22 -4 5 2 16 -1 25 -9 9 -7
19 -12 22 -11 3 2 14 0 24 -3 14 -5 16 -9 6 -20 -16 -20 -5 -29 13 -10 16 16
86 18 106 3 14 -11 16 -37 3 -37 -5 0 -11 6 -14 13 -2 6 -3 3 -1 -8 2 -11 -1
-26 -5 -34 -6 -9 -2 -25 10 -45 10 -17 19 -45 19 -61 0 -17 6 -37 13 -44 10
-11 9 -13 -5 -8 -11 4 -18 -1 -21 -15 -4 -15 -11 -18 -29 -13 -13 4 -31 14
-40 22 -20 18 -131 46 -122 32 3 -6 24 -17 46 -26 23 -9 43 -25 49 -39 4 -13
15 -24 23 -24 8 0 29 -19 46 -42 l32 -43 -6 45 c-4 32 -3 39 3 25 5 -11 10
-28 10 -39 1 -10 11 -27 23 -37 11 -11 16 -19 11 -19 -6 0 -13 -10 -16 -21 -4
-15 -11 -20 -22 -15 -11 4 -15 2 -13 -6 2 -6 -3 -19 -13 -29 -9 -9 -26 -42
-38 -74 -12 -31 -29 -64 -37 -73 -15 -14 -14 -16 6 -24 16 -6 28 -4 41 8 11
10 19 13 20 8 1 -5 9 16 19 46 l18 55 -6 -72 c-3 -44 -1 -73 5 -73 39 0 66
103 35 134 -12 12 -13 19 -5 27 6 6 9 19 6 28 -4 10 -1 9 9 -4 20 -28 38 -95
38 -143 0 -22 5 -44 10 -47 6 -3 10 1 10 10 0 22 27 30 46 14 13 -10 17 -10
24 0 10 17 230 12 251 -6 16 -13 70 -10 111 6 35 13 172 18 228 8 l45 -9 -25
19 c-14 10 -29 17 -34 15 -4 -1 -16 0 -27 3 -27 9 -25 106 2 123 16 10 21 10
25 -3 4 -8 4 -24 1 -34 -2 -10 -1 -25 4 -32 6 -9 9 3 9 34 0 54 -24 122 -40
112 -6 -4 -17 -1 -25 5 -12 10 -15 9 -15 -3 0 -8 5 -17 12 -19 9 -3 9 -12 0
-38 -7 -18 -12 -50 -12 -70 0 -20 -3 -39 -6 -43 -9 -9 -64 21 -64 35 0 6 -8
16 -17 23 -14 11 -15 16 -5 28 16 19 17 71 3 157 -6 42 -7 89 -1 135 14 103
12 163 -4 172 -18 10 -35 98 -29 145 4 29 1 39 -11 44 -13 5 -9 15 24 56 22
28 40 54 40 58 0 18 136 100 165 100 29 0 173 28 256 50 32 9 36 13 31 36 -4
24 -3 26 19 19 21 -7 22 -6 10 9 -12 14 -12 21 -1 41 16 30 30 32 37 5 9 -33
18 -23 18 20 1 22 -2 34 -6 28 -5 -7 -11 -9 -16 -5 -10 10 12 43 26 40 6 -2
11 6 11 17 0 41 -36 18 -46 -28 -4 -22 -14 -27 -14 -7 0 16 -4 15 -28 -8 -20
-19 -31 -24 -42 -17 -20 13 -50 13 -50 0 0 -12 47 -25 75 -21 15 2 17 0 8 -9
-6 -7 -9 -19 -6 -26 3 -8 0 -14 -6 -14 -6 0 -11 -6 -11 -14 0 -21 -81 -55
-157 -67 -38 -5 -95 -14 -128 -20 -33 -5 -76 -11 -95 -14 -19 -3 -40 -7 -46
-9 -11 -4 -18 59 -18 184 -1 54 4 86 19 115 10 22 24 60 31 85 11 39 13 41 13
15 1 -16 5 -37 11 -45 7 -11 11 -9 19 12 5 14 7 35 4 47 -4 15 -1 21 10 21 9
0 18 -8 20 -17 4 -16 5 -16 6 0 1 22 20 18 35 -6 7 -11 7 -26 -2 -50 -7 -18
-12 -43 -12 -55 0 -16 -6 -22 -22 -22 -13 0 -30 -4 -38 -10 -13 -8 -13 -10 0
-14 8 -3 26 -6 40 -8 29 -4 30 -19 4 -91 -11 -31 -32 -62 -63 -89 l-46 -41 45
7 c48 7 113 59 88 69 -11 4 -11 7 0 15 7 5 10 16 7 24 -4 10 2 22 15 31 12 8
20 23 18 33 -2 11 4 20 13 22 11 2 18 -7 23 -28 8 -40 28 -29 24 13 -3 30 -1
32 25 30 17 -1 38 6 50 17 25 24 37 25 63 5 25 -19 44 -19 44 1 0 11 6 14 20
9 15 -5 20 -2 20 13 0 21 23 46 33 36 3 -3 3 -13 0 -22 -4 -10 -2 -13 5 -8 19
11 14 29 -15 53 -32 28 -47 30 -33 4 13 -26 13 -31 -5 -31 -8 0 -15 -7 -15
-15 0 -9 -9 -15 -25 -15 -16 0 -25 6 -25 15 0 10 -11 15 -35 15 -40 0 -47 17
-10 26 14 3 22 10 19 15 -3 5 -17 6 -31 3 -21 -6 -24 -3 -21 12 2 10 14 21 28
25 l25 6 -27 11 c-31 13 -37 42 -13 62 9 7 13 15 11 17 -3 3 -15 -4 -27 -15
-16 -16 -20 -27 -15 -47 4 -14 1 -35 -5 -47 -9 -17 -8 -23 5 -30 22 -12 23
-88 1 -88 -8 0 -15 7 -15 15 0 17 -9 19 -30 5 -13 -8 -13 -11 -1 -19 11 -7 10
-10 -6 -15 -26 -8 -53 2 -53 20 0 8 4 14 9 14 5 0 7 9 4 20 -3 11 -9 20 -14
20 -14 0 -11 68 3 72 8 3 7 11 -5 28 -9 14 -17 32 -17 42 0 23 -24 13 -38 -15
-9 -18 -11 -19 -11 -4 -1 21 -11 22 -37 2 -23 -17 -34 -19 -34 -5 0 6 8 14 17
17 9 4 25 15 35 25 10 10 24 18 32 18 9 0 12 8 8 26 -4 24 -8 25 -41 19 -20
-4 -37 -10 -39 -14 -1 -5 -15 -7 -30 -5 -15 2 -19 1 -10 -2 21 -6 32 -37 23
-64 -5 -17 -10 -18 -27 -9 -29 16 -37 0 -9 -22 29 -24 22 -56 -9 -39 -14 8
-20 8 -20 0 0 -6 7 -13 15 -16 19 -8 19 -34 -1 -62 -13 -18 -19 -21 -30 -11
-8 6 -14 17 -14 23 0 6 -14 24 -31 41 -31 29 -32 29 -24 5 4 -14 16 -30 25
-37 30 -21 53 -81 45 -121 -17 -98 -35 -140 -69 -161 -36 -23 -60 -29 -33 -8
15 11 14 16 -13 59 -17 27 -30 54 -30 61 0 7 -8 17 -19 24 -10 6 -27 32 -37
58 -18 44 -20 46 -54 41 -19 -3 -42 -6 -50 -7 -8 -1 0 -4 19 -8 30 -5 39 -14
64 -65 16 -32 29 -70 30 -85 2 -22 -2 -26 -28 -29 -27 -3 -40 6 -94 63 -56 59
-63 69 -57 96 5 27 4 30 -15 24 -16 -5 -20 -3 -17 11 4 25 -18 29 -25 4 -4
-14 -12 -21 -23 -18 -26 5 -28 25 -4 33 29 9 21 36 -15 55 -28 14 -29 15 -7
18 20 3 20 5 7 19 -18 18 -11 33 16 33 16 0 17 2 7 13 -10 12 -15 10 -29 -7
-13 -15 -21 -18 -29 -10 -17 17 -1 44 26 44 14 0 27 7 30 15 4 8 12 15 20 15
19 0 17 14 -6 41 -17 21 -19 22 -20 6 0 -26 -18 -12 -38 31 -21 44 -33 49 -57
20z m682 -94 c-9 -9 -28 6 -21 18 4 6 10 6 17 -1 6 -6 8 -13 4 -17z m-640
-121 c4 -10 11 -21 16 -24 11 -8 1 -29 -14 -29 -6 0 -8 4 -5 9 3 5 -1 14 -9
21 -17 14 -20 40 -5 40 6 0 14 -8 17 -17z m733 -92 c0 -11 -29 -35 -35 -29
-10 9 7 38 21 38 8 0 14 -4 14 -9z m-620 -93 c65 -65 117 -134 107 -144 -16
-16 -147 79 -178 130 -22 36 -25 76 -5 76 7 0 41 -28 76 -62z m-272 -67 c3 -8
-1 -12 -9 -9 -7 2 -15 10 -17 17 -3 8 1 12 9 9 7 -2 15 -10 17 -17z m535 -108
c-7 -2 -19 -2 -25 0 -7 3 -2 5 12 5 14 0 19 -2 13 -5z m-247 -428 c4 -8 14
-15 24 -15 10 0 20 7 24 15 3 8 14 15 25 15 17 0 19 -4 12 -22 -4 -13 -19 -26
-32 -29 -13 -4 -19 -7 -14 -8 6 -1 -2 -11 -17 -24 -15 -12 -28 -29 -30 -37 -3
-13 -78 -50 -102 -50 -4 0 -6 11 -4 25 3 14 -1 33 -8 42 -7 10 -14 14 -14 9 0
-6 -6 -1 -14 9 -14 19 -11 55 5 55 14 0 10 -30 -3 -31 -10 0 -10 -2 -1 -6 7
-2 28 12 47 31 36 39 91 50 102 21z m74 -234 c0 -44 5 -114 11 -157 14 -102
-4 -155 -62 -185 -22 -11 -48 -18 -57 -14 -24 7 -62 170 -62 261 0 64 3 75 27
103 15 17 35 31 45 31 9 0 20 5 23 11 8 11 42 27 63 28 9 1 12 -21 12 -78z
m210 -26 c5 -14 7 -32 4 -40 -7 -18 7 -20 24 -3 9 9 13 7 18 -7 5 -11 1 -21
-9 -27 -10 -5 -17 -21 -17 -38 0 -24 5 -30 31 -35 21 -5 29 -12 27 -23 -2 -10
-11 -16 -21 -14 -15 3 -16 -3 -11 -35 5 -33 0 -46 -33 -96 -44 -68 -55 -61
-19 12 14 28 26 57 26 65 0 20 -18 30 -33 17 -19 -15 -40 3 -32 28 3 11 10 21
15 21 14 0 -13 84 -33 101 -12 9 -17 21 -13 28 6 9 11 9 22 0 12 -9 14 -6 14
23 0 53 23 67 40 23z m-410 -95 c0 -5 -5 -10 -11 -10 -5 0 -7 5 -4 10 3 6 8
10 11 10 2 0 4 -4 4 -10z m15 -71 c11 -22 30 -86 41 -146 2 -13 1 -23 -4 -23
-5 0 -17 37 -28 82 -11 46 -27 89 -38 99 -16 16 -17 17 -1 15 9 -1 23 -13 30
-27z"/>
<path d="M1205 1120 c3 -5 11 -10 16 -10 6 0 7 5 4 10 -3 6 -11 10 -16 10 -6
0 -7 -4 -4 -10z"/>
<path d="M1195 1090 c-3 -5 -1 -10 4 -10 6 0 11 5 11 10 0 6 -2 10 -4 10 -3 0
-8 -4 -11 -10z"/>
<path d="M1127 1058 c7 -8 10 -18 6 -21 -3 -4 -1 -7 6 -7 17 0 10 32 -9 38
-12 4 -13 3 -3 -10z"/>
<path d="M1812 2169 c2 -6 14 -16 27 -20 27 -11 19 6 -11 22 -16 8 -19 8 -16
-2z"/>
<path d="M1927 2154 c-4 -4 -7 -14 -7 -23 0 -11 3 -12 11 -4 6 6 10 16 7 23
-2 6 -7 8 -11 4z"/>
<path d="M1225 2143 c-35 -9 -39 -22 -9 -29 16 -4 35 -11 42 -17 8 -7 12 -5
12 6 0 21 -11 47 -19 46 -3 -1 -15 -3 -26 -6z"/>
<path d="M1362 2123 c7 -16 18 -35 25 -44 7 -8 13 -23 13 -32 0 -24 20 -31 37
-14 19 19 10 49 -14 45 -14 -2 -17 3 -15 24 2 18 -4 30 -17 37 -33 18 -42 14
-29 -16z"/>
<path d="M1608 2122 c-7 -10 -26 -22 -42 -26 -23 -6 -27 -9 -15 -17 36 -22 69
-7 83 39 9 27 -8 29 -26 4z"/>
<path d="M1850 2109 c0 -5 5 -7 10 -4 6 3 10 8 10 11 0 2 -4 4 -10 4 -5 0 -10
-5 -10 -11z"/>
<path d="M1207 2080 c3 -11 7 -20 9 -20 2 0 4 9 4 20 0 11 -4 20 -9 20 -5 0
-7 -9 -4 -20z"/>
<path d="M1246 2055 c-4 -10 0 -28 9 -42 16 -24 12 -45 -8 -41 -7 1 -28 -8
-47 -20 -19 -12 -29 -22 -21 -22 7 0 21 -9 30 -19 20 -23 72 -32 78 -13 3 7
-4 12 -16 12 -29 0 -28 43 1 62 23 15 21 46 -5 82 -13 18 -14 18 -21 1z"/>
<path d="M1839 2038 c22 -36 41 -47 41 -26 0 15 -40 58 -54 58 -4 0 1 -15 13
-32z"/>
<path d="M1498 2048 c11 -13 11 -20 0 -37 -15 -24 -24 -27 -31 -8 -2 6 -7 9
-11 6 -12 -11 6 -39 24 -39 10 0 25 10 33 23 13 18 16 19 16 5 1 -24 22 -23
28 2 3 11 9 20 14 20 5 0 9 4 9 9 0 5 -13 9 -30 9 -16 -1 -37 5 -47 13 -16 13
-17 12 -5 -3z"/>
<path d="M897 2012 c-23 -25 -22 -46 1 -36 9 4 27 7 40 7 27 -1 25 14 -4 34
-18 11 -23 11 -37 -5z"/>
<path d="M2189 1963 c-13 -16 -12 -17 4 -4 9 7 17 15 17 17 0 8 -8 3 -21 -13z"/>
<path d="M1316 1945 c8 -35 21 -45 43 -38 45 16 56 48 14 40 -18 -3 -35 1 -46
11 -18 16 -18 15 -11 -13z"/>
<path d="M910 1945 c7 -8 17 -15 22 -15 6 0 5 7 -2 15 -7 8 -17 15 -22 15 -6
0 -5 -7 2 -15z"/>
<path d="M2040 1920 c0 -5 7 -10 15 -10 8 0 15 -5 15 -12 0 -6 2 -9 5 -6 3 3
3 13 -1 22 -7 17 -34 22 -34 6z"/>
<path d="M945 1860 c3 -5 11 -10 16 -10 6 0 7 5 4 10 -3 6 -11 10 -16 10 -6 0
-7 -4 -4 -10z"/>
<path d="M990 1851 c5 -11 15 -23 21 -27 6 -3 8 -16 5 -28 -6 -26 10 -59 18
-36 10 30 0 82 -19 96 -27 20 -38 17 -25 -5z"/>
<path d="M2207 1766 c-2 -6 -1 -31 2 -56 6 -47 24 -57 29 -18 2 13 8 27 13 33
15 15 10 29 -15 41 -19 9 -26 9 -29 0z"/>
<path d="M785 1746 c8 -13 13 -31 9 -40 -7 -19 7 -21 24 -4 17 17 16 59 -2 52
-8 -3 -17 -1 -21 5 -3 6 -11 11 -16 11 -5 0 -3 -11 6 -24z"/>
<path d="M715 1738 c-22 -11 -49 -29 -60 -39 -11 -10 -50 -26 -85 -35 -82 -20
-90 -27 -22 -18 36 4 52 3 52 -5 0 -14 56 -15 65 -1 3 6 -1 10 -9 10 -29 0
-16 17 44 59 33 23 60 44 60 47 0 6 0 6 -45 -18z"/>
<path d="M1828 1704 c-5 -4 -8 -19 -8 -33 0 -18 3 -22 11 -14 6 6 9 21 7 33
-1 12 -6 18 -10 14z"/>
<path d="M1868 1703 c7 -3 16 -2 19 1 4 3 -2 6 -13 5 -11 0 -14 -3 -6 -6z"/>
<path d="M760 1691 c0 -5 5 -13 10 -16 6 -3 10 -2 10 4 0 5 -4 13 -10 16 -5 3
-10 2 -10 -4z"/>
<path d="M834 1644 c6 -44 20 -74 29 -63 10 11 -9 103 -22 107 -11 4 -13 -5
-7 -44z"/>
<path d="M2138 1658 c-3 -38 24 -68 54 -60 22 5 23 21 2 29 -8 3 -13 12 -10
19 3 8 1 14 -4 14 -5 0 -15 7 -24 15 -13 14 -15 12 -18 -17z"/>
<path d="M1210 1590 c0 -5 5 -10 10 -10 6 0 10 5 10 10 0 6 -4 10 -10 10 -5 0
-10 -4 -10 -10z"/>
<path d="M937 1565 c-9 -9 -17 -26 -17 -38 1 -21 1 -21 12 -3 10 17 12 17 22
4 9 -12 14 -13 22 -3 9 9 7 17 -5 34 -16 21 -19 22 -34 6z"/>
<path d="M1170 1566 c0 -2 7 -7 16 -10 8 -3 12 -2 9 4 -6 10 -25 14 -25 6z"/>
<path d="M890 1550 c-13 -8 -12 -10 3 -10 9 0 17 5 17 10 0 12 -1 12 -20 0z"/>
<path d="M1015 1550 c3 -5 11 -10 16 -10 6 0 7 5 4 10 -3 6 -11 10 -16 10 -6
0 -7 -4 -4 -10z"/>
<path d="M3097 1533 c-4 -3 -7 -46 -7 -95 0 -72 3 -88 15 -88 12 0 15 15 15
72 0 39 3 69 6 65 3 -3 16 -34 29 -69 30 -84 50 -84 80 0 13 35 26 66 29 69 3
4 6 -26 6 -65 0 -57 3 -72 15 -72 12 0 15 17 15 89 0 50 -5 93 -10 96 -14 9
-50 -4 -51 -18 0 -7 -10 -34 -23 -62 l-23 -50 -17 55 c-22 66 -55 97 -79 73z"/>
<path d="M3389 1519 c-9 -19 -59 -157 -59 -166 0 -2 7 -3 16 -3 9 0 18 9 21
20 4 16 14 20 44 20 28 0 41 -5 49 -20 12 -22 45 -28 38 -7 -3 6 -15 44 -28
82 -12 39 -27 76 -33 83 -14 18 -35 15 -48 -9z m44 -91 c-6 -11 -43 -10 -43 1
0 5 5 22 11 38 l11 28 13 -30 c7 -16 11 -33 8 -37z"/>
<path d="M3537 1534 c-4 -4 -7 -47 -7 -96 0 -67 3 -89 13 -86 7 3 14 30 17 69
l5 64 35 -65 c25 -47 41 -65 55 -65 19 0 20 7 20 89 0 61 -4 91 -12 93 -8 3
-13 -15 -15 -59 l-3 -63 -36 60 c-33 56 -56 75 -72 59z"/>
<path d="M3746 1519 c-22 -18 -26 -28 -26 -75 0 -41 5 -59 20 -74 29 -29 110
-25 110 5 0 10 -10 12 -34 8 -29 -4 -37 -1 -51 20 -11 18 -15 36 -10 56 9 40
29 55 65 47 22 -4 30 -2 30 8 0 31 -66 35 -104 5z"/>
<path d="M3915 1528 c-33 -19 -44 -41 -45 -86 0 -81 81 -121 144 -71 22 17 26
28 26 72 0 58 -5 69 -37 86 -27 14 -62 14 -88 -1z m79 -40 c9 -12 16 -32 16
-43 0 -50 -57 -84 -88 -53 -16 16 -16 90 0 106 19 19 55 14 72 -10z"/>
<path d="M4087 1533 c-4 -3 -7 -46 -7 -95 0 -72 3 -88 15 -88 12 0 15 15 15
72 0 82 7 80 40 -10 29 -81 45 -78 79 13 l26 70 5 -69 c3 -43 10 -71 18 -74 9
-3 12 20 12 93 0 94 0 96 -22 93 -23 -3 -44 -35 -69 -102 l-11 -31 -22 58
c-26 67 -56 94 -79 70z"/>
<path d="M4340 1465 c0 -89 17 -115 75 -115 59 0 76 27 73 112 -2 46 -7 73
-15 76 -10 3 -13 -13 -13 -58 0 -73 -12 -100 -45 -100 -33 0 -45 27 -45 99 0
48 -3 61 -15 61 -12 0 -15 -15 -15 -75z"/>
<path d="M4534 1527 c-3 -8 -4 -49 -2 -93 2 -62 6 -79 18 -79 11 0 16 16 20
63 l5 64 33 -67 c27 -55 36 -66 55 -63 21 3 22 8 22 93 0 73 -3 90 -15 90 -11
0 -15 -13 -16 -50 -1 -27 -2 -54 -3 -60 -1 -5 -15 15 -33 45 -17 30 -36 58
-42 62 -17 12 -36 9 -42 -5z"/>
<path d="M4730 1445 c0 -78 3 -95 15 -95 12 0 15 17 15 95 0 78 -3 95 -15 95
-12 0 -15 -17 -15 -95z"/>
<path d="M4817 1533 c-4 -3 -7 -46 -7 -95 l0 -88 34 0 c46 0 94 18 106 40 13
24 13 86 0 110 -15 28 -114 52 -133 33z m88 -37 c26 -19 26 -83 0 -103 -11 -7
-29 -12 -40 -11 -16 2 -21 12 -23 52 -2 27 -1 55 2 62 7 18 37 18 61 0z"/>
<path d="M5036 1531 c-20 -32 -62 -172 -53 -178 6 -4 17 3 25 15 20 30 87 31
95 2 5 -18 37 -29 37 -13 0 4 -14 47 -31 95 -24 67 -36 88 -50 88 -10 0 -20
-4 -23 -9z m39 -83 c6 -25 5 -28 -19 -28 -29 0 -31 6 -16 46 12 31 25 24 35
-18z"/>
<path d="M5177 1533 c-4 -3 -7 -46 -7 -95 l0 -88 40 0 c46 0 95 21 104 45 9
25 7 84 -4 105 -15 28 -114 52 -133 33z m88 -37 c26 -19 26 -83 0 -103 -11 -7
-29 -12 -40 -11 -16 2 -21 12 -23 52 -2 27 -1 55 2 62 7 18 37 18 61 0z"/>
<path d="M5425 1528 c-3 -8 -5 -50 -3 -94 l3 -79 53 0 c69 1 97 27 97 90 0 58
-24 82 -92 91 -42 5 -54 3 -58 -8z m99 -40 c32 -46 9 -108 -41 -108 -22 0 -23
3 -23 65 0 62 1 65 24 65 14 0 32 -10 40 -22z"/>
<path d="M5614 1527 c-2 -7 -4 -49 -2 -93 l3 -79 48 0 c53 0 69 18 20 23 -27
3 -33 8 -33 27 0 18 6 24 27 27 39 4 42 28 4 28 -26 0 -31 4 -31 25 0 22 4 25
36 25 54 0 37 24 -19 28 -33 2 -49 -1 -53 -11z"/>
<path d="M915 1490 c-20 -9 -7 -15 23 -11 8 1 25 -5 39 -14 18 -12 22 -20 14
-28 -16 -16 -13 -26 7 -20 27 7 52 -29 59 -86 3 -28 10 -51 14 -51 5 0 9 7 9
15 0 22 47 19 54 -2 3 -11 4 -7 3 7 -2 19 -7 25 -24 24 -13 0 -23 2 -23 6 0 9
41 46 68 59 12 6 22 16 22 22 0 6 -12 2 -27 -9 -39 -27 -73 -37 -73 -20 0 31
14 58 31 63 18 6 28 35 12 35 -14 -1 -49 -35 -56 -54 -7 -18 -9 -18 -35 6 -28
26 -87 69 -94 67 -1 0 -12 -4 -23 -9z"/>
<path d="M748 1473 c7 -3 16 -2 19 1 4 3 -2 6 -13 5 -11 0 -14 -3 -6 -6z"/>
<path d="M2170 1440 c0 -5 7 -7 15 -4 8 4 15 8 15 10 0 2 -7 4 -15 4 -8 0 -15
-4 -15 -10z"/>
<path d="M935 1384 c-28 -26 -32 -42 -5 -21 18 14 44 47 38 47 -3 0 -17 -11
-33 -26z"/>
<path d="M1796 1388 c3 -4 9 -8 15 -8 5 0 9 4 9 8 0 5 -7 9 -15 9 -8 0 -12 -4
-9 -9z"/>
<path d="M714 1324 c3 -9 6 -18 6 -21 0 -3 7 0 15 7 13 11 19 9 38 -7 34 -31
55 -40 32 -14 -36 41 -103 67 -91 35z"/>
<path d="M810 1316 c0 -2 7 -9 15 -16 9 -7 15 -8 15 -2 0 5 -7 12 -15 16 -8 3
-15 4 -15 2z"/>
<path d="M1235 1310 c-3 -6 1 -7 9 -4 18 7 21 14 7 14 -6 0 -13 -4 -16 -10z"/>
<path d="M2285 1310 c-3 -6 1 -7 9 -4 18 7 21 14 7 14 -6 0 -13 -4 -16 -10z"/>
<path d="M2359 1303 c-12 -16 -12 -17 2 -6 9 7 19 10 22 6 4 -3 7 -1 7 5 0 17
-16 15 -31 -5z"/>
<path d="M2210 1290 c0 -5 7 -10 15 -10 8 0 15 5 15 10 0 6 -7 10 -15 10 -8 0
-15 -4 -15 -10z"/>
<path d="M880 1286 c0 -2 8 -10 18 -17 15 -13 16 -12 3 4 -13 16 -21 21 -21
13z"/>
<path d="M2138 1263 c-16 -8 -28 -18 -28 -22 0 -17 13 -19 29 -4 15 15 16 15
19 0 3 -15 6 -14 22 5 13 17 15 25 7 30 -15 9 -16 9 -49 -9z"/>
<path d="M2001 1243 c0 -25 1 -26 9 -8 12 27 12 35 0 35 -5 0 -10 -12 -9 -27z"/>
<path d="M3690 1237 c-21 -10 -26 -21 -28 -61 -2 -27 2 -54 9 -62 14 -17 80
-15 86 2 2 7 -8 9 -26 6 -25 -3 -33 0 -42 22 -19 41 2 80 41 74 20 -3 30 0 30
9 0 7 -4 13 -9 13 -5 0 -15 2 -23 5 -7 3 -24 -1 -38 -8z"/>
<path d="M3090 1169 c0 -52 3 -70 13 -67 6 3 14 27 17 54 l5 49 18 -52 c10
-29 25 -53 32 -53 7 0 21 23 30 50 20 59 35 57 35 -6 0 -24 5 -44 10 -44 6 0
10 30 10 70 0 68 -1 70 -25 70 -20 0 -26 -7 -35 -40 -15 -55 -26 -57 -46 -5
-13 36 -22 45 -40 45 -23 0 -24 -3 -24 -71z"/>
<path d="M3300 1182 c0 -66 11 -82 55 -82 44 0 55 16 55 82 0 46 -3 58 -16 58
-12 0 -14 -8 -9 -42 8 -54 -13 -90 -42 -72 -13 8 -19 26 -21 63 -4 70 -22 65
-22 -7z"/>
<path d="M3450 1170 c0 -40 4 -70 10 -70 6 0 10 20 10 45 0 25 3 45 8 45 4 0
17 -20 28 -43 12 -23 29 -43 38 -45 14 -3 16 7 16 67 0 41 -4 71 -10 71 -5 0
-10 -18 -10 -40 0 -51 -10 -51 -34 0 -12 25 -26 40 -38 40 -16 0 -18 -9 -18
-70z"/>
<path d="M3600 1170 c0 -40 4 -70 10 -70 6 0 10 30 10 70 0 40 -4 70 -10 70
-6 0 -10 -30 -10 -70z"/>
<path d="M3790 1170 c0 -40 4 -70 10 -70 6 0 10 30 10 70 0 40 -4 70 -10 70
-6 0 -10 -30 -10 -70z"/>
<path d="M3850 1171 c0 -41 4 -71 10 -71 6 0 10 10 10 23 0 17 8 25 33 32 28
9 32 14 32 45 0 34 -1 35 -42 38 l-43 3 0 -70z m58 27 c-5 -34 -38 -37 -38 -4
0 20 5 26 21 26 15 0 20 -5 17 -22z"/>
<path d="M3985 1230 c-6 -9 -45 -120 -45 -127 0 -1 7 -3 15 -3 8 0 15 7 15 15
0 8 4 15 9 15 5 0 16 3 24 6 8 3 24 -5 36 -17 32 -34 35 -18 9 55 -16 46 -28
66 -40 66 -9 0 -20 -4 -23 -10z m35 -61 c0 -10 -7 -19 -15 -19 -15 0 -21 31
-9 43 11 10 24 -3 24 -24z"/>
<path d="M4092 1173 l3 -68 38 -3 c39 -3 53 14 15 20 -20 3 -23 10 -26 61 -2
43 -7 57 -18 57 -12 0 -14 -13 -12 -67z"/>
<path d="M4190 1170 c0 -56 3 -70 15 -70 12 0 15 14 15 70 0 56 -3 70 -15 70
-12 0 -15 -14 -15 -70z"/>
<path d="M4260 1170 l0 -70 33 0 c50 0 77 24 77 70 0 49 -21 70 -71 70 l-39 0
0 -70z m82 25 c9 -19 8 -29 -6 -50 -9 -14 -25 -25 -36 -25 -17 0 -20 7 -20 50
0 47 2 50 25 50 17 0 29 -8 37 -25z"/>
<path d="M4421 1217 c-35 -92 -38 -146 -5 -99 19 28 38 28 64 0 31 -33 34 -16
10 56 -17 51 -26 66 -41 66 -11 0 -23 -10 -28 -23z m39 -26 c0 -5 3 -16 6 -25
4 -12 0 -16 -15 -16 -20 0 -30 28 -14 43 9 10 23 9 23 -2z"/>
<path d="M4540 1170 l0 -70 38 0 c48 0 72 24 72 73 0 46 -22 67 -71 67 l-39 0
0 -70z m80 30 c19 -36 -4 -80 -42 -80 -15 0 -18 9 -18 50 0 46 2 50 25 50 14
0 29 -8 35 -20z"/>
<path d="M4682 1173 l3 -68 38 -3 c21 -2 37 1 37 7 0 6 -11 11 -25 11 -18 0
-25 5 -25 20 0 15 7 20 25 20 14 0 25 4 25 9 0 5 -11 12 -25 15 -14 4 -25 13
-25 21 0 9 10 15 25 15 14 0 25 5 25 10 0 6 -18 10 -40 10 l-41 0 3 -67z"/>
<path d="M4797 1233 c-18 -17 -6 -53 24 -68 36 -19 33 -40 -4 -40 -16 1 -27
-5 -27 -12 0 -22 68 -16 80 6 14 27 3 49 -32 67 -32 17 -29 34 8 34 13 0 24 5
24 10 0 11 -63 14 -73 3z"/>
<path d="M4954 1226 c-3 -7 -4 -38 -2 -67 3 -53 4 -54 36 -57 51 -5 82 20 82
68 0 22 -7 45 -16 54 -19 20 -93 21 -100 2z m90 -39 c8 -23 6 -31 -11 -49 -33
-32 -53 -18 -53 37 0 45 1 46 27 43 20 -2 30 -11 37 -31z"/>
<path d="M5100 1170 l0 -70 40 0 c45 0 55 17 13 22 -37 4 -44 35 -8 40 14 2
25 8 24 13 0 6 -6 9 -11 7 -14 -4 -39 18 -32 29 3 5 16 9 29 9 13 0 27 5 30
10 4 6 -12 10 -39 10 l-46 0 0 -70z"/>
<path d="M5220 1170 l0 -70 35 0 c39 0 48 17 13 22 -20 3 -23 10 -26 61 -4 81
-22 71 -22 -13z"/>
<path d="M5367 1233 c-18 -17 -6 -53 24 -68 36 -19 33 -40 -4 -40 -16 1 -27
-5 -27 -12 0 -8 13 -13 33 -13 62 0 77 45 27 80 -37 26 -38 40 -5 40 14 0 25
5 25 10 0 11 -63 14 -73 3z"/>
<path d="M5480 1182 c0 -66 11 -82 55 -82 44 0 55 16 55 82 0 45 -3 58 -15 58
-12 0 -15 -13 -15 -55 0 -40 -4 -57 -15 -61 -27 -11 -45 16 -45 67 0 27 -4 49
-10 49 -6 0 -10 -26 -10 -58z"/>
<path d="M5630 1169 c0 -50 3 -70 12 -67 6 2 12 14 13 26 1 12 5 25 9 29 9 9
36 -25 36 -44 0 -7 7 -13 15 -13 18 0 18 -1 4 39 -7 21 -8 36 -1 44 6 7 6 21
1 35 -7 18 -16 22 -49 22 l-40 0 0 -71z m68 34 c5 -18 -28 -29 -38 -12 -5 7
-6 17 -3 22 7 12 35 5 41 -10z"/>
<path d="M2110 1189 c0 -11 5 -17 10 -14 6 3 10 13 10 21 0 8 -4 14 -10 14 -5
0 -10 -9 -10 -21z"/>
<path d="M782 1184 c-10 -12 -10 -14 2 -14 17 0 30 16 19 23 -5 3 -14 -1 -21
-9z"/>
<path d="M2250 1181 c0 -20 -4 -22 -27 -17 -27 6 -27 6 -9 -9 41 -32 79 -12
52 27 l-16 22 0 -23z"/>
<path d="M1970 1173 c0 -5 5 -15 10 -23 8 -12 10 -11 10 8 0 12 -4 22 -10 22
-5 0 -10 -3 -10 -7z"/>
<path d="M2316 1162 c-4 -12 -18 -25 -32 -28 -13 -3 -24 -10 -24 -15 0 -6 -9
-5 -20 1 -19 10 -20 8 -20 -64 0 -72 1 -76 24 -82 45 -11 60 -1 67 41 5 27 17
49 44 73 l38 35 -32 -6 c-29 -6 -32 -5 -26 13 3 11 2 27 -3 36 -9 15 -10 15
-16 -4z"/>
<path d="M740 1159 c0 -5 5 -7 10 -4 6 3 10 8 10 11 0 2 -4 4 -10 4 -5 0 -10
-5 -10 -11z"/>
<path d="M2086 1141 c-4 -7 -5 -15 -2 -18 9 -9 19 4 14 18 -4 11 -6 11 -12 0z"/>
<path d="M2573 1075 c-15 -30 -33 -55 -41 -55 -7 0 -24 -11 -38 -25 -14 -14
-29 -25 -34 -25 -13 0 -13 0 10 -45 11 -22 20 -48 20 -60 0 -29 11 -65 20 -65
4 0 10 32 14 71 3 39 11 79 17 90 6 13 6 19 -1 19 -5 0 -10 7 -10 15 0 8 7 15
16 15 8 0 20 14 26 31 7 19 15 28 24 25 9 -3 16 4 20 19 3 14 13 25 21 25 8 0
11 5 8 10 -3 6 -15 10 -26 10 -13 0 -27 -16 -46 -55z"/>
<path d="M2667 1104 c-4 -4 -7 -17 -7 -28 0 -17 2 -18 10 -6 8 13 10 12 10 -3
0 -10 5 -15 10 -12 13 8 13 18 -3 39 -7 9 -16 14 -20 10z"/>
<path d="M2010 1063 c-8 -3 -19 -12 -23 -19 -4 -8 -15 -14 -22 -14 -18 0 -18
4 0 -45 10 -29 14 -90 15 -228 0 -146 3 -188 13 -185 9 4 13 60 15 227 2 183
5 227 18 247 16 24 13 28 -16 17z"/>
<path d="M2489 1050 c13 -11 28 -20 35 -20 6 0 0 9 -14 20 -33 26 -52 25 -21
0z"/>
<path d="M3106 1004 c-42 -41 -2 -109 50 -85 23 10 29 25 24 66 -4 36 -46 47
-74 19z m57 -18 c11 -27 -4 -57 -27 -54 -36 5 -34 68 3 68 10 0 21 -6 24 -14z"/>
<path d="M3216 1004 c-24 -23 -20 -61 8 -80 19 -12 29 -13 43 -5 16 9 15 10
-9 11 -21 0 -29 6 -34 24 -8 33 2 46 32 46 14 0 22 4 19 10 -9 15 -42 12 -59
-6z"/>
<path d="M3306 1004 c-30 -30 -10 -94 29 -94 24 0 26 18 3 22 -18 2 -23 9 -23
33 0 23 5 31 23 33 12 2 22 8 22 13 0 15 -37 10 -54 -7z"/>
<path d="M3393 970 c0 -30 2 -43 4 -27 2 15 2 39 0 55 -2 15 -4 2 -4 -28z"/>
<path d="M3430 970 c0 -48 1 -50 28 -50 34 0 52 16 52 46 0 30 -25 54 -56 54
-22 0 -24 -4 -24 -50z m55 -5 c0 -20 -6 -31 -17 -33 -15 -3 -18 4 -18 33 0 29
3 36 18 33 11 -2 17 -13 17 -33z"/>
<path d="M3537 1013 c-4 -3 -7 -26 -7 -50 0 -42 1 -43 33 -42 23 1 26 3 10 6
-25 5 -32 33 -8 33 8 0 15 5 15 10 0 6 -7 10 -15 10 -8 0 -15 5 -15 10 0 6 6
10 14 10 8 0 18 5 21 10 7 11 -38 14 -48 3z"/>
<path d="M3621 968 c1 -29 4 -41 6 -25 5 34 16 35 31 2 19 -42 42 -32 42 19 0
53 -17 71 -22 24 l-3 -33 -18 33 c-25 46 -37 40 -36 -20z"/>
<path d="M3720 1010 c0 -5 5 -10 10 -10 6 0 10 -18 10 -40 0 -22 5 -40 10 -40
6 0 10 18 10 40 0 22 5 40 10 40 6 0 10 5 10 10 0 6 -13 10 -30 10 -16 0 -30
-4 -30 -10z"/>
<path d="M3810 970 c0 -48 1 -50 28 -49 26 0 26 1 5 9 -13 5 -23 14 -23 19 0
5 10 12 23 14 l22 4 -22 8 c-28 9 -30 25 -3 25 11 0 20 5 20 10 0 6 -11 10
-25 10 -23 0 -25 -3 -25 -50z"/>
<path d="M3930 970 c0 -48 1 -50 28 -50 34 0 52 16 52 46 0 30 -25 54 -56 54
-22 0 -24 -4 -24 -50z m55 -5 c0 -23 -4 -30 -20 -30 -15 0 -21 8 -23 33 -3 30
-1 33 20 30 18 -2 23 -9 23 -33z"/>
<path d="M4037 1013 c-4 -3 -7 -26 -7 -50 0 -42 1 -43 33 -42 23 1 26 3 10 6
-25 5 -32 33 -8 33 8 0 15 5 15 10 0 6 -7 10 -15 10 -8 0 -15 5 -15 10 0 6 9
10 20 10 11 0 20 5 20 10 0 11 -43 14 -53 3z"/>
<path d="M4150 970 c0 -48 1 -50 28 -49 16 1 20 3 10 6 -14 3 -18 15 -18 49 0
24 -4 44 -10 44 -5 0 -10 -22 -10 -50z"/>
<path d="M4240 995 c-6 -14 -14 -36 -20 -50 -9 -24 2 -36 15 -15 9 14 42 12
48 -2 2 -7 7 -10 11 -7 8 8 -24 99 -35 99 -5 0 -14 -11 -19 -25z m30 -31 c0
-14 -12 -19 -23 -8 -9 9 4 35 14 28 5 -3 9 -12 9 -20z"/>
<path d="M4360 970 c0 -27 5 -50 10 -50 6 0 10 6 10 14 0 7 9 16 20 19 45 12
31 67 -16 67 -22 0 -24 -4 -24 -50z m50 15 c0 -8 -7 -15 -15 -15 -8 0 -15 7
-15 15 0 8 7 15 15 15 8 0 15 -7 15 -15z"/>
<path d="M4450 970 c0 -27 5 -50 10 -50 6 0 10 10 10 23 l1 22 20 -24 c22 -27
36 -23 20 7 -7 13 -7 22 1 30 16 16 -8 42 -38 42 -22 0 -24 -4 -24 -50z m48
18 c-6 -18 -28 -21 -28 -4 0 9 7 16 16 16 9 0 14 -5 12 -12z"/>
<path d="M4552 1008 c-20 -20 -15 -76 7 -88 36 -19 71 6 71 51 0 30 -17 49
-45 49 -12 0 -26 -5 -33 -12z m53 -43 c0 -23 -5 -31 -22 -33 -20 -3 -23 1 -23
33 0 32 3 36 23 33 17 -2 22 -10 22 -33z"/>
<path d="M4640 1017 c0 -2 7 -24 16 -50 24 -71 51 -59 70 31 5 26 5 26 -10 8
-9 -11 -16 -28 -16 -38 0 -30 -18 -20 -30 17 -6 19 -16 35 -21 35 -5 0 -9 -1
-9 -3z"/>
<path d="M4750 970 c0 -27 5 -50 10 -50 6 0 10 23 10 50 0 28 -4 50 -10 50 -5
0 -10 -22 -10 -50z"/>
<path d="M4797 1013 c-11 -10 -8 -93 2 -93 6 0 11 15 13 33 l3 32 18 -32 c26
-48 47 -43 47 11 0 53 -17 71 -22 24 l-3 -33 -18 33 c-17 32 -27 38 -40 25z"/>
<path d="M4916 1004 c-31 -31 -6 -104 31 -90 8 3 18 6 21 7 4 1 -4 4 -18 8
-19 5 -25 13 -25 36 0 24 5 31 23 33 12 2 20 8 17 13 -9 14 -32 11 -49 -7z"/>
<path d="M4997 1013 c-11 -10 -8 -93 3 -93 6 0 10 23 10 50 0 51 -1 55 -13 43z"/>
<path d="M5046 974 c-9 -26 -13 -50 -10 -53 4 -3 9 0 11 7 6 14 39 16 48 2 3
-5 10 -10 15 -10 13 0 -22 92 -36 97 -7 2 -19 -17 -28 -43z m37 2 c6 -15 -1
-26 -15 -26 -4 0 -8 9 -8 20 0 23 15 27 23 6z"/>
<path d="M5180 970 c0 -48 1 -50 28 -50 34 0 52 16 52 46 0 30 -25 54 -56 54
-22 0 -24 -4 -24 -50z m55 -5 c0 -23 -4 -30 -20 -30 -15 0 -21 8 -23 33 -3 30
-1 33 20 30 18 -2 23 -9 23 -33z"/>
<path d="M5280 970 l0 -50 33 1 c23 1 26 3 10 6 -25 5 -32 33 -8 33 8 0 15 5
15 10 0 6 -7 10 -15 10 -8 0 -15 5 -15 10 0 6 7 10 15 10 8 0 15 5 15 10 0 6
-11 10 -25 10 -23 0 -25 -3 -25 -50z"/>
<path d="M5400 971 c0 -49 1 -51 28 -50 16 1 20 3 10 6 -13 3 -18 15 -18 43 0
21 -4 42 -10 45 -6 4 -10 -13 -10 -44z"/>
<path d="M5476 1004 c-45 -45 8 -114 60 -79 41 27 22 95 -26 95 -10 0 -26 -7
-34 -16z m59 -39 c0 -25 -4 -30 -25 -30 -16 0 -26 6 -28 18 -6 30 6 49 30 45
18 -2 23 -9 23 -33z"/>
<path d="M5590 976 c0 -26 -5 -46 -11 -46 -5 0 -7 -5 -4 -10 5 -8 11 -7 21 1
16 13 19 85 4 94 -6 4 -10 -12 -10 -39z"/>
<path d="M5655 1011 c-15 -25 -33 -91 -25 -91 6 0 10 5 10 10 0 15 48 12 53
-2 2 -7 7 -10 11 -7 8 7 -23 99 -34 99 -5 0 -11 -4 -15 -9z m20 -50 c-9 -16
-25 -3 -18 15 4 10 9 12 15 6 6 -6 7 -15 3 -21z"/>
<path d="M2215 896 c2 -39 4 -79 4 -90 1 -13 5 -16 14 -9 6 5 24 8 39 7 15 -2
30 1 33 7 4 5 -8 9 -24 9 -17 0 -31 5 -31 10 0 6 11 10 25 10 29 0 33 7 37 73
l3 48 -51 3 -51 3 2 -71z"/>
<path d="M2372 929 c-10 -15 -10 -19 2 -19 15 0 29 27 18 34 -5 3 -13 -4 -20
-15z"/>
<path d="M2645 899 c8 -23 15 -50 15 -60 0 -11 5 -19 10 -19 16 0 11 38 -10
80 -26 52 -33 51 -15 -1z"/>
<path d="M1813 918 c-6 -7 -10 -40 -9 -73 1 -56 3 -60 26 -64 14 -1 28 -7 31
-13 3 -5 9 23 13 63 5 62 4 73 -11 85 -23 17 -38 17 -50 2z"/>
<path d="M2608 924 c-8 -13 22 -114 34 -114 4 0 8 -6 8 -14 0 -7 7 -19 15 -26
13 -11 14 -10 9 6 -4 10 -11 24 -15 30 -5 6 -17 37 -27 70 -10 32 -21 54 -24
48z"/>
<path d="M1021 774 c0 -11 3 -14 6 -6 3 7 2 16 -1 19 -3 4 -6 -2 -5 -13z"/>
<path d="M807 762 c-24 -26 -22 -29 17 -34 29 -3 35 0 39 19 2 12 2 25 -1 28
-11 11 -40 4 -55 -13z"/>
<path d="M761 723 c3 -19 -2 -40 -14 -57 -12 -16 -13 -15 -12 10 0 15 -6 29
-14 32 -11 3 -12 -2 -7 -22 6 -25 5 -27 -15 -21 -14 5 -19 4 -15 -4 4 -6 16
-11 27 -11 10 0 19 -5 19 -12 0 -6 9 -3 20 7 16 15 22 15 35 5 12 -10 15 -10
15 0 0 7 6 10 14 7 20 -8 40 17 24 29 -31 22 -78 45 -77 37z"/>
<path d="M2212 709 c2 -7 10 -15 17 -17 8 -3 12 1 9 9 -2 7 -10 15 -17 17 -8
3 -12 -1 -9 -9z"/>
<path d="M528 673 c7 -3 16 -2 19 1 4 3 -2 6 -13 5 -11 0 -14 -3 -6 -6z"/>
<path d="M1862 639 c-13 -10 -26 -32 -28 -48 -4 -24 -1 -29 19 -33 23 -4 25
-1 30 46 3 28 4 52 3 53 0 1 -12 -7 -24 -18z"/>
<path d="M2102 608 c-29 -29 0 -54 43 -38 22 8 24 13 15 30 -12 22 -40 26 -58
8z"/>
<path d="M780 580 c0 -12 28 -21 35 -11 2 5 -4 11 -15 14 -11 3 -20 2 -20 -3z"/>
<path d="M2215 564 l-40 -13 54 2 c33 1 56 7 59 15 5 15 -21 14 -73 -4z"/>
<path d="M2020 555 c-15 -8 -19 -14 -10 -15 26 0 60 12 60 21 0 13 -21 10 -50
-6z"/>
<path d="M2465 560 c-4 -6 -10 -8 -15 -5 -5 3 -11 1 -14 -4 -7 -10 134 -26
156 -18 7 3 -3 6 -22 7 -19 0 -46 7 -60 15 -30 17 -37 18 -45 5z"/>
<path d="M637 543 c10 -29 14 -34 24 -28 5 4 5 14 -1 26 -13 24 -32 25 -23 2z"/>
<path d="M250 300 l0 -180 1235 0 1235 0 0 168 c0 92 -4 173 -8 180 -7 9 -119
12 -523 10 -455 -2 -515 -4 -521 -17 -4 -9 -7 -80 -7 -158 l-1 -142 -262 -3
c-145 -2 -451 -2 -680 0 l-418 3 0 113 c0 156 -8 206 -31 206 -18 0 -19 -11
-19 -180z m1693 104 c15 -15 -13 -41 -38 -37 -35 7 -32 -13 5 -32 43 -22 55
-50 36 -81 -19 -28 -53 -39 -102 -30 -26 5 -34 12 -32 24 3 13 12 16 41 14 47
-4 51 20 7 38 -51 21 -61 66 -21 97 17 13 93 18 104 7z m172 0 c19 -8 45 -55
45 -84 0 -18 -6 -20 -61 -20 -73 0 -79 -23 -7 -28 35 -2 47 -8 51 -22 8 -32
-72 -42 -123 -15 -52 27 -57 118 -9 158 21 17 73 23 104 11z m215 -3 c0 -28
-14 -41 -46 -41 -28 0 -35 -4 -40 -27 -9 -35 7 -57 44 -61 29 -3 48 -24 36
-43 -8 -13 -71 -11 -97 3 -34 18 -46 40 -47 85 0 56 41 93 106 93 24 0 44 -4
44 -9z m172 -2 c26 -14 48 -67 41 -101 -13 -70 -113 -99 -167 -49 -20 19 -26
34 -26 66 0 43 12 65 45 83 26 15 81 15 107 1z"/>
<path d="M2047 364 c-15 -15 -6 -24 24 -24 20 0 29 4 27 13 -5 14 -40 21 -51
11z"/>
<path d="M2422 358 c-17 -17 -15 -64 4 -82 8 -9 17 -16 19 -16 2 0 11 7 19 16
29 28 15 94 -19 94 -6 0 -16 -5 -23 -12z"/>
<path d="M372 420 c0 -14 2 -19 5 -12 2 6 2 18 0 25 -3 6 -5 1 -5 -13z"/>
<path d="M1144 285 c0 -66 1 -92 3 -57 2 34 2 88 0 120 -2 31 -3 3 -3 -63z"/>
<path d="M1213 335 c0 -38 2 -53 4 -32 2 20 2 52 0 70 -2 17 -4 1 -4 -38z"/>
<path d="M372 360 c0 -19 2 -27 5 -17 2 9 2 25 0 35 -3 9 -5 1 -5 -18z"/>
<path d="M502 315 c0 -16 2 -22 5 -12 2 9 2 23 0 30 -3 6 -5 -1 -5 -18z"/>
<path d="M621 314 c0 -11 3 -14 6 -6 3 7 2 16 -1 19 -3 4 -6 -2 -5 -13z"/>
<path d="M1528 313 c12 -2 30 -2 40 0 9 3 -1 5 -23 4 -22 0 -30 -2 -17 -4z"/>
<path d="M371 254 c0 -11 3 -14 6 -6 3 7 2 16 -1 19 -3 4 -6 -2 -5 -13z"/>
</g>
</svg>
